<svg xmlns="http://www.w3.org/2000/svg" xmlns:xlink="http://www.w3.org/1999/xlink" width="535.567" height="434.71" viewBox="0 0 535.567 434.71">
  <defs>
    <filter id="Path_84350" x="16.558" y="227.833" width="140.567" height="148.909" filterUnits="userSpaceOnUse">
      <feOffset dy="3" input="SourceAlpha"/>
      <feGaussianBlur stdDeviation="3" result="blur"/>
      <feFlood flood-opacity="0.161"/>
      <feComposite operator="in" in2="blur"/>
      <feComposite in="SourceGraphic"/>
    </filter>
    <filter id="Path_84351" x="177.96" y="208.077" width="188.869" height="186.158" filterUnits="userSpaceOnUse">
      <feOffset dy="3" input="SourceAlpha"/>
      <feGaussianBlur stdDeviation="3" result="blur-2"/>
      <feFlood flood-opacity="0.161"/>
      <feComposite operator="in" in2="blur-2"/>
      <feComposite in="SourceGraphic"/>
    </filter>
    <filter id="Path_84347" x="0" y="0" width="164.174" height="129.222" filterUnits="userSpaceOnUse">
      <feOffset dy="3" input="SourceAlpha"/>
      <feGaussianBlur stdDeviation="3" result="blur-3"/>
      <feFlood flood-opacity="0.161"/>
      <feComposite operator="in" in2="blur-3"/>
      <feComposite in="SourceGraphic"/>
    </filter>
    <filter id="Path_84352" x="373.297" y="239.304" width="126.533" height="133.683" filterUnits="userSpaceOnUse">
      <feOffset dy="3" input="SourceAlpha"/>
      <feGaussianBlur stdDeviation="3" result="blur-4"/>
      <feFlood flood-opacity="0.161"/>
      <feComposite operator="in" in2="blur-4"/>
      <feComposite in="SourceGraphic"/>
    </filter>
    <filter id="Path_84348" x="176.235" y="11.807" width="187.66" height="121.428" filterUnits="userSpaceOnUse">
      <feOffset dy="3" input="SourceAlpha"/>
      <feGaussianBlur stdDeviation="3" result="blur-5"/>
      <feFlood flood-opacity="0.161"/>
      <feComposite operator="in" in2="blur-5"/>
      <feComposite in="SourceGraphic"/>
    </filter>
    <filter id="Path_84349" x="391.983" y="5.472" width="132.977" height="137.791" filterUnits="userSpaceOnUse">
      <feOffset dy="3" input="SourceAlpha"/>
      <feGaussianBlur stdDeviation="3" result="blur-6"/>
      <feFlood flood-opacity="0.161"/>
      <feComposite operator="in" in2="blur-6"/>
      <feComposite in="SourceGraphic"/>
    </filter>
  </defs>
  <g id="Group_162559" data-name="Group 162559" transform="translate(-537.433 -1238.29)">
    <g transform="matrix(1, 0, 0, 1, 537.43, 1238.29)" filter="url(#Path_84350)">
      <path id="Path_84350-2" data-name="Path 84350" d="M51.946,8.221a50.6,50.6,0,0,0-10.9.4,18.731,18.731,0,0,0-7.02,2.512,18.272,18.272,0,0,0-4.771,4.517c-1.4,1.829-2.716,3.971-4.226,6.409-1.484,2.4-3.223,5.229-5,8.432a109.85,109.85,0,0,0-5.228,10.676,79.376,79.376,0,0,0-4.129,12.514A60.573,60.573,0,0,0,9,67.573a70.032,70.032,0,0,0,5.355,26.966,67.9,67.9,0,0,0,14.422,21.7,63.742,63.742,0,0,0,20.912,14.1,60.087,60.087,0,0,0,24.858,4.539,71.176,71.176,0,0,0,23.527-4.512,52.177,52.177,0,0,0,17.945-11.412,49.5,49.5,0,0,0,11.483-17.7,65.586,65.586,0,0,0,4.066-23.608,34.784,34.784,0,0,0-1.416-10.081,31.29,31.29,0,0,0-3.937-8.348,38.561,38.561,0,0,0-6-6.956,59.07,59.07,0,0,0-7.62-5.886c-1.8-1.185-3.694-2.3-5.649-3.367s-3.979-2.112-6.018-3.146-4.108-2.073-6.149-3.142S90.7,34.539,88.74,33.361a66.437,66.437,0,0,1-7.761-5.955c-2.989-2.539-6.294-5.458-9.675-8.241A90.162,90.162,0,0,0,61.131,11.71C57.812,9.7,54.666,8.361,51.946,8.221Z" transform="translate(16.56 227.83)" fill="#4445da"/>
    </g>
    <g transform="matrix(1, 0, 0, 1, 537.43, 1238.29)" filter="url(#Path_84351)">
      <path id="Path_84351-2" data-name="Path 84351" d="M63.97,33.055a44.232,44.232,0,0,1,7.364-6.56,17.667,17.667,0,0,1,6.248-2.781,18.958,18.958,0,0,1,6.178-.189c2.158.241,4.475.723,7.112,1.26,2.583.526,5.615,1.154,8.914,1.975s6.853,1.831,10.5,3.126A80.943,80.943,0,0,1,121.323,34.7a61.087,61.087,0,0,1,10.55,7.061,68.967,68.967,0,0,1,15.862,19.055,64.9,64.9,0,0,1,7.652,22.269,59.8,59.8,0,0,1-1.053,23.123,56.281,56.281,0,0,1-10.508,21.424A68.486,68.486,0,0,1,126.4,143.5a51.612,51.612,0,0,1-20.38,7.482A49.564,49.564,0,0,1,84.05,148.93a65.846,65.846,0,0,1-22.029-12.558,34.572,34.572,0,0,1-7.129-8.054,30.958,30.958,0,0,1-3.815-8.919,38.345,38.345,0,0,1-1.123-9.541,58.761,58.761,0,0,1,.928-9.931c.377-2.178.882-4.371,1.457-6.573s1.216-4.4,1.871-6.6,1.317-4.4,1.937-6.591,1.19-4.369,1.66-6.539a58.789,58.789,0,0,0,.855-9.3c.139-3.686.209-7.8.43-11.842A74.1,74.1,0,0,1,60.427,41.1C61.167,37.708,62.275,34.868,63.97,33.055Z" transform="translate(177.96 208.08)" fill="#00969f"/>
    </g>
    <g transform="matrix(1, 0, 0, 1, 537.43, 1238.29)" filter="url(#Path_84347)">
      <path id="Path_84347-2" data-name="Path 84347" d="M117.522,9.91a44.887,44.887,0,0,1,9.7,1.311,13.6,13.6,0,0,1,5.518,2.769,11.81,11.81,0,0,1,2.964,4.246,52.389,52.389,0,0,1,1.968,5.73c.646,2.111,1.391,4.588,2.068,7.356a72.975,72.975,0,0,1,1.65,9.043,55.863,55.863,0,0,1,.258,10.264,48.394,48.394,0,0,1-2.07,11.069,69.853,69.853,0,0,1-10.892,20.973,83.782,83.782,0,0,1-17.1,16.927,85.565,85.565,0,0,1-21.318,11.575,74.042,74.042,0,0,1-23.73,4.657,71.006,71.006,0,0,1-21.88-2.564,38.915,38.915,0,0,1-16-8.853A29.974,29.974,0,0,1,20.1,89.31c-1.432-6.1-1.312-13.2.6-21.238a31.939,31.939,0,0,1,3.786-9.235,36.405,36.405,0,0,1,6.218-7.6,51.876,51.876,0,0,1,8.145-6.192A82.948,82.948,0,0,1,48.4,39.99c2.186-1,4.45-1.913,6.758-2.789s4.652-1.706,7.008-2.531,4.713-1.641,7.05-2.487,4.642-1.718,6.894-2.656a86.036,86.036,0,0,0,9.14-4.842c3.545-2.068,7.472-4.441,11.416-6.674a110.6,110.6,0,0,1,11.492-5.816C111.755,10.7,115,9.789,117.522,9.91Z" transform="translate(0 0)" fill="#f4c043"/>
    </g>
    <g transform="matrix(1, 0, 0, 1, 537.43, 1238.29)" filter="url(#Path_84352)">
      <g id="Path_84352-2" data-name="Path 84352" transform="translate(373.3 239.3)" fill="#fff">
        <path d="M83.171,9.321a41.707,41.707,0,0,1,9.054,1.226,16.411,16.411,0,0,1,5.708,2.684,17.188,17.188,0,0,1,3.825,4.166c1.118,1.637,2.159,3.526,3.352,5.669,1.17,2.1,2.534,4.571,3.922,7.343s2.793,5.832,4.054,9.127a72.12,72.12,0,0,1,3.168,10.5,54.33,54.33,0,0,1,1.278,11.484,61.631,61.631,0,0,1-4.1,22.224,58.963,58.963,0,0,1-11.294,18.379,55.476,55.476,0,0,1-17.075,12.793,52.978,52.978,0,0,1-21.454,5.2,64.335,64.335,0,0,1-21.565-2.847A47.705,47.705,0,0,1,24.7,107.5a44.73,44.73,0,0,1-11.534-16.4A58.619,58.619,0,0,1,9,68.554a30.858,30.858,0,0,1,1.457-9.621,27.976,27.976,0,0,1,4.022-7.843,35.173,35.173,0,0,1,6.053-6.354,54.493,54.493,0,0,1,7.546-5.173c1.758-1.015,3.6-1.952,5.5-2.845s3.825-1.739,5.769-2.58,3.887-1.67,5.8-2.529,3.794-1.742,5.607-2.691a54.83,54.83,0,0,0,7.086-4.87c2.692-2.07,5.646-4.439,8.643-6.664a69.42,69.42,0,0,1,8.868-5.777C78.2,10.125,80.873,9.218,83.171,9.321Z" stroke="none"/>
        <path d="M 63.6115837097168 119.1176605224609 C 65.46798706054688 119.0654144287109 67.30596923828125 118.9176712036133 69.12254333496094 118.6755523681641 C 70.93476867675781 118.4339904785156 72.72576904296875 118.0984649658203 74.49259948730469 117.6700592041016 C 76.25530242919922 117.2426528930664 77.99404907226562 116.7227630615234 79.7059326171875 116.111442565918 C 81.41391754150391 115.5014953613281 83.09527587890625 114.8004989624023 84.74712371826172 114.0094299316406 C 85.53950500488281 113.6299514770508 86.32402038574219 113.2297134399414 87.09935760498047 112.8095169067383 C 87.8739013671875 112.3897705078125 88.63932037353516 111.9501113891602 89.39430999755859 111.4913635253906 C 90.14852905273438 111.0330657958984 90.89235687255859 110.5556945800781 91.62454223632812 110.0601119995117 C 92.35598754882812 109.5649871826172 93.07582092285156 109.051643371582 93.78274536132812 108.5209045410156 C 94.48212432861328 107.9958343505859 95.17041778564453 107.4525680541992 95.84651947021484 106.8921661376953 C 96.52200317382812 106.3322601318359 97.18534088134766 105.7552337646484 97.83542633056641 105.162109375 C 98.48494720458984 104.5695343017578 99.12126159667969 103.9608840942383 99.74326324462891 103.3372039794922 C 100.3647308349609 102.7140274047852 100.9719619750977 102.0758514404297 101.5638275146484 101.4236526489258 C 102.1549987792969 100.772216796875 102.7320861816406 100.1054534912109 103.2942047119141 99.42459869384766 C 103.8558731079102 98.7442626953125 104.4026260375977 98.04983520507812 104.9335479736328 97.34255218505859 C 105.4640808105469 96.63577270507812 105.9788284301758 95.91609954833984 106.4768905639648 95.18478393554688 C 106.9746398925781 94.4539794921875 107.4557342529297 93.71147155761719 107.919303894043 92.95853424072266 C 108.3868179321289 92.19919586181641 108.8375625610352 91.42752838134766 109.2708435058594 90.6448974609375 C 109.7038726806641 89.86273193359375 110.1194915771484 89.06959533691406 110.5170364379883 88.26686859130859 C 110.9143753051758 87.46457672119141 111.2936859130859 86.65267181396484 111.6542663574219 85.83251190185547 C 112.0147018432617 85.01277160644531 112.3564605712891 84.18475341796875 112.6788787841797 83.34983825683594 C 113.348991394043 81.61466217041016 113.9360046386719 79.85430908203125 114.4395599365234 78.07171630859375 C 114.9427490234375 76.29035186767578 115.3627090454102 74.48635864257812 115.6989669799805 72.66265869140625 C 116.0350646972656 70.83980560302734 116.2876205444336 68.996826171875 116.4561386108398 67.13662719726562 C 116.6246185302734 65.27685546875 116.7091522216797 63.3994255065918 116.7091522216797 61.50720977783203 C 116.7091522216797 60.6020622253418 116.6827850341797 59.68669891357422 116.630241394043 58.76271438598633 C 116.5776977539062 57.83866119384766 116.4989547729492 56.90592193603516 116.3941955566406 55.9660758972168 C 116.289436340332 55.02610397338867 116.1586151123047 54.07895660400391 116.0019607543945 53.1262321472168 C 115.8452682495117 52.17330551147461 115.6626815795898 51.2147331237793 115.4543762207031 50.25210952758789 C 115.2743835449219 49.42029571533203 115.0737838745117 48.57917404174805 114.8530044555664 47.73020935058594 C 114.6321563720703 46.88099670410156 114.3911056518555 46.02388000488281 114.1303100585938 45.16034698486328 C 113.8694076538086 44.29650497436523 113.5887145996094 43.42619323730469 113.2886657714844 42.55088043212891 C 112.9884872436523 41.67521667480469 112.6689453125 40.79450225830078 112.330436706543 39.91021347045898 C 111.6811141967773 38.2140007019043 110.9867477416992 36.56960678100586 110.2791595458984 35.00102233886719 C 109.5709075927734 33.43093109130859 108.8494110107422 31.93674850463867 108.1466903686523 30.54276275634766 C 107.4433135986328 29.14743995666504 106.7587814331055 27.85258293151855 106.1253509521484 26.68270683288574 C 105.4913635253906 25.5118236541748 104.9086608886719 24.46630668640137 104.4095611572266 23.57083129882812 L 104.2338562011719 23.25541305541992 C 103.6535797119141 22.21362113952637 103.1131439208984 21.24336433410645 102.5845718383789 20.34122467041016 C 102.0556335449219 19.43844032287598 101.5386047363281 18.60390281677246 101.0053787231445 17.83407402038574 C 100.4717864990234 17.06369590759277 99.92195892333984 16.35808563232422 99.32769012451172 15.71362781524658 C 98.73293304443359 15.06865215301514 98.09359741210938 14.48485279083252 97.38128662109375 13.95854187011719 C 97.01249694824219 13.68604469299316 96.62548065185547 13.43087768554688 96.21864318847656 13.19231700897217 C 95.81158447265625 12.9536247253418 95.38465881347656 12.73154449462891 94.93625640869141 12.52535438537598 C 94.48757171630859 12.31903839111328 94.01735687255859 12.12862205505371 93.52398681640625 11.95338344573975 C 93.03028869628906 11.77803039550781 92.51336669921875 11.61786079406738 91.97160339355469 11.47215843200684 C 91.38722991943359 11.3149995803833 90.76952362060547 11.17320442199707 90.11582183837891 11.04643726348877 C 89.4615478515625 10.91955947875977 88.77116394042969 10.8077278137207 88.0419921875 10.71061229705811 C 87.31210327148438 10.61339950561523 86.54327392578125 10.53092193603516 85.73284149169922 10.46285152435303 C 84.92150115966797 10.39470767974854 84.068359375 10.34099388122559 83.17066192626953 10.30138778686523 C 82.53208923339844 10.27321338653564 81.84510040283203 10.32933616638184 81.10659790039062 10.47097873687744 C 80.36737823486328 10.61276435852051 79.57642364501953 10.840256690979 78.73061370849609 11.1547269821167 C 77.88385009765625 11.4695520401001 76.98198699951172 11.87159633636475 76.02182006835938 12.3621711730957 C 75.06043243408203 12.85337162017822 74.04045867919922 13.43340682983398 72.95863342285156 14.1036376953125 C 71.99272918701172 14.70206546783447 71.00984191894531 15.35291385650635 70.02146148681641 16.03743934631348 C 69.03178405761719 16.72286605834961 68.03656768798828 17.44206619262695 67.04737854003906 18.17619895935059 C 66.05690002441406 18.91129493713379 65.07247924804688 19.66134643554688 64.10576629638672 20.40740776062012 C 63.13782119750977 21.15442085266113 62.18767929077148 21.89739608764648 61.26706695556641 22.61727333068848 C 60.27603149414062 23.39222717285156 59.31754302978516 24.1417236328125 58.39519882202148 24.85215187072754 C 57.47174072265625 25.56344604492188 56.58460235595703 26.23551368713379 55.73736572265625 26.85470390319824 C 54.88919067382812 27.47458267211914 54.08111190795898 28.04139709472656 53.31673812866211 28.54147529602051 C 52.55158615112305 29.04204368591309 51.83031845092773 29.47567176818848 51.15653228759766 29.82864952087402 C 50.33809661865234 30.25736999511719 49.50368881225586 30.67421340942383 48.65882873535156 31.08146667480469 C 47.81304168701172 31.48917770385742 46.95676422119141 31.88728523254395 46.09558486938477 32.27809906005859 C 45.23342895507812 32.66935348510742 44.36635589599609 33.05329132080078 43.49997329711914 33.43220901489258 C 42.63261032104492 33.81155776977539 41.76594543457031 34.18586349487305 40.90562438964844 34.55743026733398 C 39.85975646972656 35.00914001464844 38.80354690551758 35.46530532836914 37.74771881103516 35.93001937866211 C 36.69044876098633 36.39537048339844 35.6335563659668 36.86928176879883 34.58787155151367 37.3558464050293 C 33.54076766967773 37.84305953979492 32.50492858886719 38.34293365478516 31.49124717712402 38.85954284667969 C 30.47623634338379 39.3768196105957 29.48351097106934 39.91084289550781 28.52404403686523 40.46566390991211 C 27.04768562316895 41.31936264038086 25.6679859161377 42.18980026245117 24.3815975189209 43.08012390136719 C 23.09307861328125 43.97192001342773 21.89849472045898 44.88345336914062 20.79438781738281 45.8178825378418 C 19.68871879577637 46.75363922119141 18.67404556274414 47.71215057373047 17.7468204498291 48.69658279418945 C 16.81849479675293 49.68218612670898 15.97803592681885 50.69356536865234 15.22181034088135 51.7338981628418 C 14.79758644104004 52.31750106811523 14.39798259735107 52.91392135620117 14.023606300354 53.52204895019531 C 13.64904975891113 54.13045883178711 13.29976558685303 54.75053787231445 12.97635364532471 55.38116455078125 C 12.65280818939209 56.01205444335938 12.35517883300781 56.65345764160156 12.084059715271 57.30425262451172 C 11.81284523010254 57.95525741577148 11.56818103790283 58.61561584472656 11.35065364837646 59.2841911315918 C 11.11831569671631 59.99827194213867 10.91455459594727 60.72890090942383 10.73960018157959 61.47471618652344 C 10.56460475921631 62.2206916809082 10.41843795776367 62.98177719116211 10.30132293701172 63.756591796875 C 10.18419075012207 64.53153228759766 10.09612560272217 65.32014465332031 10.03734016418457 66.12102508544922 C 9.978550910949707 66.92197418212891 9.949052810668945 67.73515319824219 9.949052810668945 68.55913543701172 C 9.949052810668945 70.58958435058594 10.03509521484375 72.57825469970703 10.2065544128418 74.52159881591797 C 10.3779764175415 76.46452331542969 10.63474082946777 78.36171722412109 10.97616577148438 80.20967102050781 C 11.31744480133057 82.05683135986328 11.74323844909668 83.85437774658203 12.25281238555908 85.59884643554688 C 12.76205539703369 87.34219360351562 13.35486316680908 89.03216552734375 14.03044986724854 90.66532135009766 C 14.68014812469482 92.23589324951172 15.40536403656006 93.75189971923828 16.2042350769043 95.21086120605469 C 17.00228881835938 96.6683349609375 17.87370300292969 98.06858062744141 18.81657218933105 99.4091796875 C 19.75830459594727 100.748161315918 20.77115440368652 102.0273666381836 21.85319709777832 103.2444152832031 C 22.93374443054199 104.4598007202148 24.08309936523438 105.6129608154297 25.29932403564453 106.7015762329102 C 26.49379730224609 107.7707290649414 27.74925994873047 108.7747268676758 29.06290817260742 109.7122192382812 C 30.37433624267578 110.6481170654297 31.74355697631836 111.5175857543945 33.16776275634766 112.3192825317383 C 34.58935546875 113.1195220947266 36.06553649902344 113.8521194458008 37.593505859375 114.5158081054688 C 39.11845779418945 115.1781845092773 40.69477844238281 115.7718353271484 42.31969833374023 116.2955169677734 C 43.94793319702148 116.8202667236328 45.61904525756836 117.2728805541992 47.32960510253906 117.6531219482422 C 49.0363655090332 118.0325393676758 50.78222274780273 118.3398590087891 52.56378555297852 118.5749359130859 C 54.34120941162109 118.809455871582 56.15399932861328 118.9720230102539 57.99879455566406 119.0624542236328 C 59.83914184570312 119.1526947021484 61.71116638183594 119.1711273193359 63.6115837097168 119.1176605224609 M 63.6115837097168 120.1109390258789 C 55.85296249389648 120.3343200683594 48.59097290039062 119.3681793212891 42.04671096801758 117.2635803222656 C 35.44632720947266 115.1409225463867 29.58908653259277 111.8644256591797 24.70295333862305 107.4951019287109 C 19.78595352172852 103.0981674194336 15.86502552032471 97.60592651367188 13.16894817352295 91.09276580810547 C 10.46357154846191 84.55714416503906 9.000062942504883 77.01425933837891 9.000062942504883 68.55438995361328 C 9.000062942504883 65.020751953125 9.513941764831543 61.83010864257812 10.45708656311035 58.93321990966797 C 11.39909839630127 56.03979110717773 12.7683162689209 53.44256591796875 14.479323387146 51.09056854248047 C 16.18660354614258 48.74369430541992 18.23269081115723 46.64302444458008 20.53238296508789 44.73650360107422 C 22.8253173828125 42.83558654785156 25.36886596679688 41.1289176940918 28.07880401611328 39.56393051147461 C 29.83710098266602 38.54848861694336 31.68283271789551 37.61203384399414 33.57629013061523 36.71876907348633 C 35.46512222290039 35.82768630981445 37.40120697021484 34.97970581054688 39.34539031982422 34.13914108276367 C 41.2846794128418 33.30068588256836 43.23196411132812 32.46963882446289 45.14868545532227 31.61045265197754 C 47.06063079833984 30.7534008026123 48.94229507446289 29.86828994750977 50.75566864013672 28.91969871520996 C 52.70376968383789 27.90057373046875 55.14012145996094 26.1270866394043 57.84190368652344 24.0500373840332 C 60.53413009643555 21.98032188415527 63.48801422119141 19.61063575744629 66.48479461669922 17.385986328125 C 69.46976470947266 15.17010593414307 72.49691009521484 13.09840106964111 75.35250854492188 11.60883331298828 C 78.19730377197266 10.12488746643066 80.87310028076172 9.218035697937012 83.17066192626953 9.320908546447754 C 86.90704345703125 9.488202095031738 89.84383392333984 9.895520210266113 92.22444152832031 10.54705619812012 C 94.59744262695312 11.19651412963867 96.42128753662109 12.0895938873291 97.93224334716797 13.23090839385986 C 99.44011688232422 14.36990165710449 100.6376342773438 15.75707244873047 101.7573547363281 17.39655303955078 C 102.875373840332 19.03355598449707 103.9160766601562 20.92244911193848 105.1097793579102 23.06596183776855 C 106.2794036865234 25.16589546203613 107.6442642211914 27.63717460632324 109.0321655273438 30.40873908996582 C 110.4174728393555 33.17509460449219 111.8256454467773 36.24042129516602 113.0863952636719 39.53592300415039 C 114.3449859619141 42.82577133178711 115.4571762084961 46.34631729125977 116.2541656494141 50.03164672851562 C 117.05029296875 53.71295547485352 117.5326232910156 57.56185531616211 117.5326232910156 61.51558685302734 C 117.5326232910156 69.39154815673828 116.0759506225586 76.89519500732422 113.4343185424805 83.73966979980469 C 110.7831649780273 90.60888671875 106.9298934936523 96.83646392822266 102.1404037475586 102.1184463500977 C 97.31969451904297 107.4348602294922 91.538330078125 111.8067474365234 85.0655517578125 114.9110717773438 C 78.53630828857422 118.0424957275391 71.29168701171875 119.8897857666016 63.6115837097168 120.1109390258789 Z" stroke="none" fill="#707070"/>
      </g>
    </g>
    <g transform="matrix(1, 0, 0, 1, 537.43, 1238.29)" filter="url(#Path_84348)">
      <path id="Path_84348-2" data-name="Path 84348" d="M95.174,106.789a74.72,74.72,0,0,0,10.726-.98,32.954,32.954,0,0,0,7.438-2.158,31.555,31.555,0,0,0,5.851-3.37c1.869-1.33,3.746-2.87,5.9-4.623,2.115-1.723,4.6-3.757,7.233-6.049s5.432-4.855,8.156-7.619a91.494,91.494,0,0,0,7.783-8.908,54.849,54.849,0,0,0,6.1-9.939,42.2,42.2,0,0,0,4.257-19.861,31.606,31.606,0,0,0-6.01-17.138,39.208,39.208,0,0,0-15.755-12.428,64.91,64.91,0,0,0-24.731-5.363,114.442,114.442,0,0,0-28.22,2.477,95.4,95.4,0,0,0-25.266,9.242A73.23,73.23,0,0,0,38.842,35.508,58.914,58.914,0,0,0,26.765,56.145a20.09,20.09,0,0,0-1.1,8.587,15.461,15.461,0,0,0,2.521,6.905,22.917,22.917,0,0,0,5.346,5.533,45.132,45.132,0,0,0,7.4,4.463c1.772.872,3.667,1.674,5.627,2.439s3.969,1.485,5.994,2.2,4.039,1.418,6.014,2.145,3.884,1.47,5.7,2.267a42.725,42.725,0,0,1,6.676,4.062c2.447,1.713,5.088,3.666,7.813,5.491a54.06,54.06,0,0,0,8.261,4.7A19.2,19.2,0,0,0,95.174,106.789Z" transform="translate(176.24 11.81)" fill="#010347"/>
    </g>
    <text id="_010347" data-name="#010347" transform="translate(753 1431)" fill="#010347" font-size="33" font-family="Lato-Regular, Lato"><tspan x="0" y="0">#010347</tspan></text>
    <text id="_F4C043" data-name="#F4C043" transform="translate(543 1431)" fill="#010347" font-size="33" font-family="Lato-Regular, Lato"><tspan x="0" y="0">#F4C043</tspan></text>
    <text id="_14165D" data-name="#14165D" transform="translate(935 1432)" fill="#010347" font-size="34" font-family="HelveticaNeue, Helvetica Neue"><tspan x="0" y="0">#14165D</tspan></text>
    <text id="_4445DA" data-name="#4445DA" transform="translate(543 1666)" fill="#010347" font-size="34" font-family="HelveticaNeue, Helvetica Neue"><tspan x="0" y="0">#4445DA</tspan></text>
    <text id="_00969F" data-name="#00969F" transform="translate(732 1665)" fill="#010347" font-size="33" font-family="HelveticaNeue, Helvetica Neue"><tspan x="0" y="0">#00969F</tspan></text>
    <text id="_FCFEFF" data-name="#FCFEFF" transform="translate(918 1665)" fill="#010347" font-size="33" font-family="HelveticaNeue, Helvetica Neue"><tspan x="0" y="0">#FCFEFF</tspan></text>
    <g transform="matrix(1, 0, 0, 1, 537.43, 1238.29)" filter="url(#Path_84349)">
      <path id="Path_84349-2" data-name="Path 84349" d="M43.226,123.392a34.544,34.544,0,0,1-8.493-.245,11.5,11.5,0,0,1-5.177-2.159,11.957,11.957,0,0,1-3.139-3.971,58.678,58.678,0,0,1-2.456-5.68c-.845-2.131-1.833-4.655-2.8-7.514a89.76,89.76,0,0,1-2.689-9.58A71.281,71.281,0,0,1,16.9,82.929a61.232,61.232,0,0,1,.588-12.652,79.951,79.951,0,0,1,8.118-24.733A78.1,78.1,0,0,1,40.357,25.591,62.889,62.889,0,0,1,59.216,12.768,45.47,45.47,0,0,1,79.681,8.927a44.293,44.293,0,0,1,17.826,4.512A32.495,32.495,0,0,1,109.7,24.121a38.706,38.706,0,0,1,6.082,16.171,65.944,65.944,0,0,1-.589,21.219,39.678,39.678,0,0,1-2.656,8.981,36.836,36.836,0,0,1-4.3,7.413,43.027,43.027,0,0,1-5.664,6.17A60.487,60.487,0,0,1,95.831,89.3c-1.56,1.053-3.184,2.041-4.849,3s-3.38,1.882-5.105,2.8-3.477,1.85-5.212,2.805-3.471,1.947-5.162,3a68.146,68.146,0,0,0-6.889,5.31c-2.691,2.263-5.683,4.865-8.715,7.348a91.9,91.9,0,0,1-9,6.665C48.023,122.029,45.374,123.241,43.226,123.392Z" transform="translate(391.98 5.47)" fill="#14165d"/>
    </g>
  </g>
</svg>
