<svg xmlns="http://www.w3.org/2000/svg" xmlns:xlink="http://www.w3.org/1999/xlink" width="1200" height="750" viewBox="0 0 1200 750">
  <defs>
    <linearGradient id="linear-gradient" x1="0.5" x2="0.5" y2="1" gradientUnits="objectBoundingBox">
      <stop offset="0" stop-color="#4a1e06"/>
      <stop offset="0.783" stop-color="#4a1e06"/>
      <stop offset="1" stop-color="#bd845d"/>
    </linearGradient>
    <clipPath id="clip-illustration_placing_pieces__2x">
      <rect width="1200" height="750"/>
    </clipPath>
  </defs>
  <g id="illustration_placing_pieces__2x" data-name="illustration_placing_pieces_@2x" clip-path="url(#clip-illustration_placing_pieces__2x)">
    <rect width="1200" height="750" fill="#fff"/>
    <g id="undraw_fitting_pieces_cli3" transform="translate(181.865 31.897)">
      <circle id="Ellipse_9443" data-name="Ellipse 9443" cx="123" cy="123" r="123" transform="translate(-159 305)" fill="#f6ebe5"/>
      <circle id="Ellipse_9444" data-name="Ellipse 9444" cx="123" cy="123" r="123" transform="translate(-139 287)" fill="#53624f"/>
      <rect id="Rectangle_147966" data-name="Rectangle 147966" width="108" height="108" transform="translate(58 72)" fill="#f6ebe5"/>
      <rect id="Rectangle_147967" data-name="Rectangle 147967" width="108" height="108" transform="translate(73 56)" fill="#53624f"/>
      <rect id="Rectangle_147968" data-name="Rectangle 147968" width="158.412" height="1.875" transform="translate(7.858 664.676)" fill="#3f3d56"/>
      <path id="Path_85513" data-name="Path 85513" d="M415.865,254.9h-142v-142h142Zm-140-2h138v-138h-138Z" transform="translate(-181.865 -112.897)" fill="#bd845d"/>
      <rect id="Rectangle_147969" data-name="Rectangle 147969" width="28" height="28" transform="translate(301 275)" fill="#f6ebe5"/>
      <rect id="Rectangle_147970" data-name="Rectangle 147970" width="28" height="28" transform="translate(307 268)" fill="#53624f"/>
      <path id="Path_85514" data-name="Path 85514" d="M543.865,398.9h-46v-46h46Zm-44-2h42v-42h-42Z" transform="translate(-181.865 -112.897)" fill="#bd845d"/>
      <path id="Path_85515" data-name="Path 85515" d="M432.865,779.9c-84.364,0-153-68.636-153-153s68.636-153,153-153,153,68.636,153,153S517.229,779.9,432.865,779.9Zm0-304c-83.262,0-151,67.738-151,151s67.738,151,151,151,151-67.738,151-151-67.738-151-151-151Z" transform="translate(-340.865 -112.897)" fill="#bd845d"/>
      <rect id="Rectangle_147971" data-name="Rectangle 147971" width="158.412" height="1.875" transform="translate(678.857 669.676)" fill="#3f3d56"/>
      <rect id="Rectangle_147972" data-name="Rectangle 147972" width="158.412" height="1.875" transform="translate(827.857 499.676)" fill="#3f3d56"/>
      <path id="Path_85516" data-name="Path 85516" d="M809.179,172.109h0C779,183.249,761.886,229.277,770.96,274.914L782.488,332.9l13.088-4.831,3.306-24.28,2.377,22.182,84.125-31.051,3.005-22.073,2.161,20.166,9.472-3.5-9.052-45.527C880.529,191.471,843.91,159.29,809.179,172.109Z" transform="translate(-31.865 -112.897)" fill="#4a1e06"/>
      <path id="Path_85517" data-name="Path 85517" d="M747.365,692.4l13,46-2,17,38-8s-16-27-14-41Z" transform="translate(-31.865 -112.897)" fill="#eab293"/>
      <path id="Path_85518" data-name="Path 85518" d="M737.5,414.5l-10,54,33-5L762,407Z" transform="translate(150)" fill="#eab293"/>
      <circle id="Ellipse_9445" data-name="Ellipse 9445" cx="36" cy="36" r="36" transform="translate(752.5 82.5)" fill="#eab293"/>
      <path id="Path_85519" data-name="Path 85519" d="M627,145l-2,20-16,9,42,93,32-77-21-16-2-38Z" transform="translate(150)" fill="#eab293"/>
      <path id="Path_85520" data-name="Path 85520" d="M838.365,357.4,797.41,283.216s-33.045,2.181-41.045,9.181l16,102-5,13s-41,42-33,133,8,162,8,162,29,34,89,0v-181l85-7v22s88-22,90-55l-22.638-39.319a38.937,38.937,0,0,0-44.866-17.886l-74.5,22.205-8-30,8-22s21-16,21-37,6-46,6-46l-38.9-17.947Z" transform="translate(-31.865 -112.897)" fill="#7e0f2c"/>
      <path id="Path_85521" data-name="Path 85521" d="M909.365,349.4l16,39s17,20,20,42l5,26s12,46-7,44-14-46-14-46l-3-13-17-28-25.085-47.68Z" transform="translate(-31.865 -112.897)" fill="#eab293"/>
      <path id="Path_85522" data-name="Path 85522" d="M912.365,572.4s28.615,2.807,34.307-10.1l28.693,23.1s51.965,13.917,23,26c-27,11.263-54-.762-54,2,0,0-8-7-17-2s-36,0-35-8S897.365,566.4,912.365,572.4Z" transform="translate(-31.865 -112.897)" fill="#2f2e41"/>
      <path id="Path_85523" data-name="Path 85523" d="M759.365,743.4s28.615,2.807,34.307-10.1l28.693,23.1s52.166,14.409,23,26c-26.972,10.719-53.986-.6-54,2,0,0-8-7-17-2s-36,0-35-8S744.365,737.4,759.365,743.4Z" transform="translate(-31.865 -112.897)" fill="#2f2e41"/>
      <path id="Path_85524" data-name="Path 85524" d="M696.5,194.5l13,4,28,42-51,34Z" transform="translate(150)" fill="#7e0f2c"/>
      <path id="Path_85525" data-name="Path 85525" d="M829.24,183.858c-7.4-5.579-16.706-7.861-25.74-5.414l-1.073.291c-20.686,5.6-32.385,28.865-26.13,51.956h0l6.931-1.878-1.189-8.824,3.949,8.076,41.11-11.136,1.491-8.142,1.092,7.442,8.088-2.191c8.851,17.72-7.007,79.685-16.549,102.388l29.243-8.374,3.029-53.4,9.043,48.877,20.894-8.157-5.308-67.51C871.4,203.033,851.262,185.884,829.24,183.858Z" transform="translate(-31.865 -112.897)" fill="url(#linear-gradient)"/>
      <circle id="Ellipse_9446" data-name="Ellipse 9446" cx="18" cy="18" r="18" transform="translate(788 31)" fill="#4a1e06"/>
      <path id="Path_85526" data-name="Path 85526" d="M836.865,171.9a17.99,17.99,0,0,1-6.333-34.832,17.989,17.989,0,1,0,8.667,34.664A18.071,18.071,0,0,1,836.865,171.9Z" transform="translate(-31.865 -112.897)" fill="#4a1e06"/>
      <ellipse id="Ellipse_9447" data-name="Ellipse 9447" cx="4.5" cy="6.5" rx="4.5" ry="6.5" transform="translate(807 112)" fill="#e0e0de"/>
      <path id="Path_85527" data-name="Path 85527" d="M756.865,581.9c-24.755-3.685-54.742-2.828-87,0q20.173-36.99,0-65a360.886,360.886,0,0,0,87,0C744.476,537.523,745.569,559.282,756.865,581.9Z" transform="translate(-31.865 -112.897)" fill="#53624f"/>
      <path id="Path_85528" data-name="Path 85528" d="M745.365,352.4l-3,40s-14,22-17,69l-1,29s-21,41-4,40,16-39,16-39l30-87v-42Z" transform="translate(-31.865 -112.897)" fill="#eab293"/>
      <path id="Path_85529" data-name="Path 85529" d="M763.365,293.4h-7s-11,7-20,37-10,31-10,31l47,11Z" transform="translate(-31.865 -112.897)" fill="#7e0f2c"/>
      <rect id="Rectangle_147973" data-name="Rectangle 147973" width="28" height="28" transform="translate(668 424)" fill="#f6ebe5"/>
    </g>
  </g>
</svg>
